<svg width="503" height="293" viewBox="0 0 503 293" fill="none" xmlns="http://www.w3.org/2000/svg">
<path d="M251.988 75.44C213.347 75.44 181.988 106.799 181.988 145.44C181.988 184.081 213.347 215.44 251.988 215.44C290.629 215.44 321.988 184.081 321.988 145.44C321.988 106.799 290.629 75.44 251.988 75.44ZM221.75 165.6L251.43 111.838L281.668 165.6H221.75Z" fill="#F7F7F7"/>
<path d="M502.308 145.44L500.066 143.198C499.507 142.639 490.546 130.878 473.746 113.518L465.343 105.115C459.183 98.9553 453.023 93.3535 446.304 87.7565L444.624 86.6354L437.906 80.4752C431.746 75.4361 425.586 70.3972 418.867 65.3542L417.187 64.2331L410.468 59.194C404.308 54.7135 398.148 50.2331 391.429 46.315L389.75 45.1939L383.031 41.272C376.871 37.3501 370.711 33.9908 363.992 30.631L361.753 29.5099L355.593 26.1505C349.433 23.3497 343.273 20.5489 336.554 17.7521L333.753 16.631L328.152 14.3927C321.992 12.1544 315.832 9.9122 309.113 8.2325L305.753 7.6739L302.386 5.99811C296.226 4.31841 289.507 3.1973 283.347 2.0762H279.988L274.949 1.51762C268.788 0.959034 262.07 0.396515 255.91 0.396515H247.507C241.347 0.396515 235.187 0.955114 228.468 1.51762L223.988 2.0762L220.629 2.6348C214.468 3.7559 208.309 4.8731 201.59 6.5567L196.55 8.2364L193.191 8.79498C187.031 10.4747 180.312 12.7169 174.152 14.9552L168.55 17.1935L165.75 18.3146C159.589 21.1154 153.43 23.9162 146.711 26.713L140.55 30.0724L138.312 31.1935C132.152 34.5529 125.433 37.9123 119.273 41.8345L112.554 45.7564L110.875 46.8775C104.714 50.7994 98.5546 55.2759 91.8356 59.7565L85.1168 64.7956L83.4371 65.9167C77.2769 70.9558 70.5581 75.9947 64.3981 81.0377L57.6793 87.1979L55.9996 88.319C49.8394 93.9206 43.1206 100.081 36.9606 105.678L28.5583 114.08C11.7573 130.881 2.7963 143.201 2.2383 143.76L0 146.561L2.2383 149.362C2.79689 149.92 11.7578 161.682 28.5583 179.042L36.9606 187.444C43.1208 193.604 49.2806 199.206 55.9996 204.803L57.1207 205.924L63.8395 212.085C69.9997 217.124 76.1595 222.725 82.8785 227.205L84.5582 228.327L91.277 233.366C97.4372 237.846 103.597 242.327 110.316 246.245L111.996 247.366L118.715 251.288C124.875 255.21 131.034 258.569 137.753 261.929L139.992 263.05L146.152 266.409C152.312 269.21 158.472 272.011 165.191 274.808L167.992 275.929L173.593 278.167C179.754 280.405 185.913 282.647 192.632 284.327L195.992 284.886L201.031 286.565C207.191 288.245 213.91 289.366 220.07 290.487L223.429 291.046L228.468 291.605C234.629 292.163 241.347 292.726 247.507 292.726L251.988 292.718H256.468C262.629 292.718 268.788 292.159 275.507 291.597L280.547 291.038L283.906 290.48C290.066 289.358 296.226 288.241 302.945 286.558L307.984 284.878L311.343 284.319C317.504 282.64 323.663 280.397 330.382 278.159L335.984 275.921L338.785 274.8C344.945 271.999 351.105 269.198 357.824 266.401L363.984 263.042L366.222 261.921C372.382 258.561 379.101 255.202 385.261 251.28L391.98 247.358L393.66 246.237C399.82 242.315 405.98 237.838 412.699 233.358L419.418 228.319L421.097 227.198C427.258 222.159 433.976 217.12 440.136 212.077L446.855 205.916L447.976 204.795C454.136 199.194 460.855 193.033 467.015 187.436L475.418 179.034C492.219 162.233 501.18 149.913 501.738 149.354L502.308 145.44ZM356.708 35.68V93.918C351.669 83.84 345.509 74.879 337.669 66.477V26.715C344.388 29.5197 350.548 32.3205 356.708 35.6798V35.68ZM329.27 23.36V58.079C323.668 53.0399 316.95 48.5595 310.231 44.638V17.197C316.95 18.8806 323.11 21.1228 329.27 23.3611V23.36ZM302.387 14.9616V40.1606C296.226 37.3598 290.067 35.1215 283.348 33.4418V11.6018C289.508 12.1604 295.668 13.2815 302.387 14.9612V14.9616ZM274.949 9.9225V31.1995C268.788 30.0784 262.07 28.9612 255.91 28.9612V8.80119C262.066 8.80119 268.789 8.8012 274.949 9.9223V9.9225ZM247.508 8.23891V28.3989C241.347 28.3989 235.188 29.52 228.469 30.6372V9.3562C235.187 8.80151 241.91 8.80151 247.508 8.239V8.23891ZM220.629 11.0397V32.8797C213.91 34.5594 207.75 36.8016 201.59 39.5985V14.3995C208.308 13.2823 214.469 12.1612 220.629 11.0401V11.0397ZM193.188 17.1999V44.6409C186.469 48.5628 180.309 53.0393 174.149 58.0819V23.3629C180.868 21.1207 187.028 18.8785 193.188 17.1988V17.1999ZM147.27 35.6799C153.43 32.3205 159.59 29.5197 166.309 27.2815V67.0435C159.028 75.4419 152.309 84.4025 147.27 94.4845V35.6799ZM12.3097 145.44C15.1105 142.081 21.2706 134.799 29.6687 125.28V165.6C21.2703 156.077 15.1097 149.358 12.3097 145.44V145.44ZM38.6297 173.999V116.878C44.7899 110.718 50.9497 104.558 57.6687 98.9559V192.476C50.9499 186.32 44.7897 180.16 38.6297 173.999V173.999ZM65.5087 199.761V91.1209C71.6689 85.5193 77.8287 80.4799 84.5477 75.4409V214.881C78.3875 210.396 71.6687 205.357 65.5087 199.76V199.761ZM92.9497 221.601V69.2809C99.1099 64.8004 105.27 60.32 111.989 55.8399V234.48C105.27 231.12 99.1097 226.64 92.9497 221.601V221.601ZM119.829 240.64V50.7999C125.989 46.878 132.149 43.5187 138.868 40.1589V116.878C136.067 126.956 134.946 136.48 134.946 145.999C134.946 155.518 136.067 165.601 138.868 175.12V251.839C132.708 247.921 125.989 243.999 119.829 240.64V240.64ZM147.27 255.761V197.519C152.309 207.597 158.469 216.558 166.309 224.96V264.722C160.149 261.921 153.43 258.558 147.27 255.761V255.761ZM174.708 267.519V232.8C180.309 237.839 187.028 242.319 193.747 246.241V273.682C187.028 271.998 180.868 269.76 174.708 267.518V267.519ZM201.591 275.921V250.722C207.751 253.523 213.911 255.761 220.63 257.441V279.281C214.469 279.281 208.31 277.601 201.591 275.922V275.921ZM229.029 281.519V260.238C235.189 261.359 241.908 262.476 248.068 262.476V282.636C241.911 282.64 235.189 282.078 229.029 281.519V281.519ZM255.912 282.64V262.48C262.072 262.48 268.232 261.359 274.951 260.242V281.523C268.791 282.077 262.068 282.64 255.912 282.64V282.64ZM283.35 279.839V257.999C290.069 256.32 296.229 254.077 302.389 251.28V276.479C295.67 277.601 289.51 279.28 283.35 279.839V279.839ZM310.791 273.679V246.238C317.51 242.316 323.67 237.84 329.83 232.797V267.516C323.111 269.762 316.951 272 310.791 273.68V273.679ZM356.709 255.761C350.549 259.12 344.389 261.921 337.67 264.159V224.397C344.951 215.999 351.67 207.038 356.709 196.956V255.761ZM330.389 219.921C322.549 228.319 313.588 235.042 304.069 240.081C296.229 244.561 287.268 247.921 277.749 250.159C268.788 252.397 259.827 253.518 251.429 253.518C243.031 253.518 234.07 252.397 225.109 250.159C215.589 247.921 207.187 244.557 198.789 240.081C189.269 234.479 180.309 227.761 172.469 219.921C160.149 206.48 150.629 190.241 146.149 172.882C143.91 163.362 142.227 154.402 142.227 145.441C142.227 136.48 143.348 126.961 146.149 118C150.629 100.641 159.59 84.398 172.469 70.961C180.308 62.5626 189.27 55.84 198.789 50.801C206.628 46.3205 215.59 42.9612 225.109 40.723C234.07 38.4847 243.031 37.3636 251.429 37.3636C259.827 37.3636 268.788 38.4847 277.749 40.723C287.268 42.9613 295.671 46.3246 304.069 50.801C313.588 55.8401 322.549 63.121 330.389 70.961C342.709 84.402 352.229 100.641 356.709 118C358.947 127.519 360.631 136.48 360.631 145.441C360.631 154.402 359.51 163.921 356.709 172.882C352.228 190.8 343.271 207.038 330.389 219.921ZM365.112 251.28V174.557C367.912 164.479 369.034 154.955 369.034 145.436C369.034 135.917 367.912 125.834 365.112 116.315V39.6C371.272 42.9594 377.991 46.8812 384.151 50.241V240.081C377.99 243.999 371.272 247.921 365.112 251.28ZM392.55 235.038V55.838C398.71 59.7599 404.87 64.2364 411.589 69.279L411.593 221.599C404.87 226.638 398.71 231.118 392.55 235.037L392.55 235.038ZM419.433 215.44V76C425.593 81.0391 432.312 86.078 438.472 91.68V200.32C432.312 205.359 425.593 210.398 419.433 215.441V215.44ZM446.871 192.479V98.959C453.031 104.561 459.75 110.721 465.91 116.881V174.002C459.191 180.158 453.031 186.318 446.871 192.479ZM473.754 165.6V125.838C482.152 134.799 488.313 142.076 491.113 145.998C488.871 149.357 482.71 156.076 473.754 165.6Z" fill="#F7F7F7"/>
</svg>
